# xmcd
# 
# Track frame offsets:
#     150
#     17606
#     35929
#     52422
#     69096
#     87535
#     103041
#     121846
#     140021
#     152512
#     168596
#     186773
# 
# Disc length: 2711
# 
# Revision: 0
# Processed by: cddbd v1.5.2PL0 Copyright (c) Steve Scherf et al.
# Submitted via: fre:ac v1.0.27
# 
DISCID=a70a950c
DTITLE=Michael Hall - The Song He Was Listening to When He Died
DYEAR=2006
DGENRE=Americana
TTITLE0=Out Where the Highways Roll
TTITLE1=Summer
TTITLE2=I Had a Girl In Dien Bien Phu
TTITLE3=Beautiful
TTITLE4=The Song He Was Listening to When He Died
TTITLE5=The Wedding
TTITLE6=If You See Me
TTITLE7=Captain, Captain
TTITLE8=Amelia
TTITLE9=America
TTITLE10=My World, You're Welcome to It
TTITLE11=I Will Follow You
EXTD=
EXTT0=
EXTT1=
EXTT2=
EXTT3=
EXTT4=
EXTT5=
EXTT6=
EXTT7=
EXTT8=
EXTT9=
EXTT10=
EXTT11=
PLAYORDER=
